<svg width="32" height="32" viewBox="0 0 32 32" fill="none" xmlns="http://www.w3.org/2000/svg">
<path d="M16 0C7.16129 0 0 7.16774 0 16C0 24.8387 7.16129 32 16 32C24.8387 32 32 24.8387 32 16C32 7.16774 24.8387 0 16 0ZM16 29C7.01936 29 0.787097 20.0968 3.72903 11.7161L8.8129 13.9806C8.67742 14.6581 8.6 15.3677 8.6 16.1032C8.6 22.4903 13.3677 24.2903 16.3677 24.2903C17.8452 24.2903 19.8194 23.8581 21.4903 22.3871L19.1613 19.5548C18.8065 19.9613 18.0258 20.6323 16.8194 20.6323C14.3806 20.6323 13.3548 18.0581 13.3419 15.9935C28.2065 22.6129 27.4 22.2387 27.4 22.2387C25.1871 26.2645 20.9097 29 16 29ZM28.529 19.3226L14.0774 12.871C15.2903 10.6774 17.6194 10.8903 18.8968 12.1613L21.5032 9.47742C19.7548 7.97419 17.7613 7.70323 16.4645 7.70323C13.4065 7.70323 11.2452 9.02581 9.96774 11.0323L5.13548 8.87742C7.46452 5.33548 11.4645 2.99355 16.0065 2.99355C23.1742 2.99355 29.0065 8.82581 29.0065 15.9935C29.0065 17.1548 28.8516 18.2774 28.5677 19.3484C28.5484 19.3419 28.5419 19.3355 28.529 19.3226Z" fill="black"/>
</svg>
